<svg width="170" height="36" viewBox="0 0 170 36" fill="none" xmlns="http://www.w3.org/2000/svg">
<path d="M0.00603721 21.9179L1.61206 23.4787L0.0457542 22.8711C0.296462 27.0152 1.64184 31.4555 4.5287 35.7527C4.63296 35.7403 4.73473 35.728 4.8365 35.7132C0.0432708 21.1103 6.65599 8.19418 18.8538 3.86987C9.35172 7.68791 3.81133 16.7415 4.49891 27.1905C6.17195 25.8717 7.82762 23.6614 9.7464 21.093L7.21946 20.9547L10.8212 19.6631C11.5262 18.7271 12.2708 17.7615 13.0652 16.7885C13.9141 15.7265 14.8176 14.6103 15.8527 13.4569L11.6205 12.6963L17.9205 11.2787C18.4839 10.7231 19.0846 10.1625 19.73 9.59445C20.7875 8.6881 21.9616 7.7694 23.3268 6.88281L21.3286 6.28516L24.9725 5.88755C27.0998 4.69472 29.664 3.60562 32.876 2.75113C32.6551 2.73384 31.3321 1.80774 28.2193 0.943369C25.1959 0.128394 20.3878 -0.62484 15.2644 0.800131C13.7031 1.21997 12.1095 1.84725 10.568 2.70421L10.012 5.82087L9.44604 3.37348C8.87513 3.73898 8.31414 4.13906 7.76556 4.57371L8.13542 6.17403L7.26663 4.98367C5.14678 6.78155 3.28509 9.12276 1.96702 12.0665L3.48119 14.5633L1.51276 13.1458C0.509934 15.7241 -0.0659481 18.7197 0.00603721 21.9179Z" fill="url(#paint0_linear_1_745)"/>
<path d="M0.00603721 21.9179L1.61206 23.4787L0.0457542 22.8711C0.296462 27.0152 1.64184 31.4555 4.5287 35.7527C4.63296 35.7403 4.73473 35.728 4.8365 35.7132C0.0432708 21.1103 6.65599 8.19418 18.8538 3.86987C9.35172 7.68791 3.81133 16.7415 4.49891 27.1905C6.17195 25.8717 7.82762 23.6614 9.7464 21.093L7.21946 20.9547L10.8212 19.6631C11.5262 18.7271 12.2708 17.7615 13.0652 16.7885C13.9141 15.7265 14.8176 14.6103 15.8527 13.4569L11.6205 12.6963L17.9205 11.2787C18.4839 10.7231 19.0846 10.1625 19.73 9.59445C20.7875 8.6881 21.9616 7.7694 23.3268 6.88281L21.3286 6.28516L24.9725 5.88755C27.0998 4.69472 29.664 3.60562 32.876 2.75113C32.6551 2.73384 31.3321 1.80774 28.2193 0.943369C25.1959 0.128394 20.3878 -0.62484 15.2644 0.800131C13.7031 1.21997 12.1095 1.84725 10.568 2.70421L10.012 5.82087L9.44604 3.37348C8.87513 3.73898 8.31414 4.13906 7.76556 4.57371L8.13542 6.17403L7.26663 4.98367C5.14678 6.78155 3.28509 9.12276 1.96702 12.0665L3.48119 14.5633L1.51276 13.1458C0.509934 15.7241 -0.0659481 18.7197 0.00603721 21.9179Z" fill="url(#paint1_linear_1_745)"/>
<path d="M37.5854 25V11.7501H46.6469V13.7638H40.0018V17.5495H45.2776V19.1201H40.0018V22.9863H46.8281V25H37.5854ZM48.5952 25V11.0454H50.8505V25H48.5952ZM53.2558 13.8846V11.6696H55.5715V13.8846H53.2558ZM53.2759 25V15.0525H55.5312V25H53.2759ZM57.1904 25L60.9559 19.9054L57.3515 15.0525H60.2109L62.6676 18.6368L65.0437 15.0525H67.601L63.9563 19.9054L67.7822 25H64.9228L62.3454 21.2747L59.8686 25H57.1904ZM69.4004 13.8846V11.6696H71.7161V13.8846H69.4004ZM69.4205 25V15.0525H71.6758V25H69.4205ZM74.0398 25V15.0525H76.2951L76.2146 17.9119H76.2347C76.6979 16.1198 77.7248 14.8914 79.7788 14.8914C81.9334 14.8914 83.1214 16.301 83.1214 18.7778C83.1214 19.402 83.061 20.2075 83.0208 20.6304H80.9668C81.0071 20.2478 81.0474 19.7444 81.0474 19.2812C81.0474 17.6099 80.403 16.8246 79.074 16.8246C77.3624 16.8246 76.2951 18.2744 76.2951 20.6505V25H74.0398ZM93.1161 25L88.968 11.7501H91.5656L94.5861 21.9997H94.6465L97.5864 11.8307H100.003L102.902 21.9997H102.963L105.943 11.7501H108.339L104.171 25H101.513L98.6939 15.2338H98.6335L95.7338 25H93.1161ZM118.034 19.6638V20.4693H110.584C110.704 22.3822 111.772 23.4092 113.463 23.4092C114.913 23.4092 115.9 22.7648 116 21.5969H118.034C117.954 23.8119 116.141 25.1611 113.423 25.1611C110.282 25.1611 108.308 23.228 108.308 20.1068C108.308 16.885 110.282 14.8914 113.423 14.8914C116.242 14.8914 118.034 16.5628 118.034 19.6638ZM116 19.1V18.959C116 17.4689 115.074 16.6433 113.443 16.6433C111.892 16.6433 110.906 17.4488 110.644 19.1H116ZM126.077 25.1611C124.023 25.1611 122.654 24.2751 122.251 22.8857H122.231C122.231 23.5904 122.271 24.4966 122.312 25H120.056V11.0454H122.312V15.5559C122.312 15.9788 122.292 16.7843 122.271 17.2676H122.292C122.714 15.8177 124.084 14.8914 126.057 14.8914C128.917 14.8914 130.628 16.7843 130.628 19.845C130.628 23.1273 128.876 25.1611 126.077 25.1611ZM125.493 23.3085C127.265 23.3085 128.373 22.0198 128.373 19.9054C128.373 17.9522 127.306 16.744 125.534 16.744C123.56 16.744 122.312 17.9925 122.312 20.0061V20.5095C122.312 22.2413 123.54 23.3085 125.493 23.3085ZM132.743 25V11.7501H138.562C141.965 11.7501 143.717 13.2201 143.717 15.5962C143.717 17.3078 142.972 18.4758 141.421 18.7577V18.7979C143.032 19.0396 143.636 20.1672 143.636 21.758V25H141.2V21.7983C141.2 20.4693 140.656 19.7444 138.884 19.7444H135.159V25H132.743ZM135.159 18.1536H138.602C140.555 18.1536 141.401 17.3078 141.401 15.8983C141.401 14.5693 140.475 13.7638 138.542 13.7638H135.159V18.1536ZM148.923 25V13.7437H144.815V11.7501H155.448V13.7437H151.34V25H148.923ZM162.722 25.2014C158.776 25.2014 155.916 22.6037 155.916 18.3952C155.916 14.1665 158.735 11.5488 162.722 11.5488C166.206 11.5488 168.683 13.6228 168.683 16.6836C168.683 16.8246 168.663 17.0863 168.643 17.328H166.508C166.528 17.1467 166.528 16.9856 166.528 16.885C166.528 14.8512 164.937 13.5624 162.803 13.5624C160.225 13.5624 158.373 15.4351 158.373 18.3952C158.373 21.3553 160.306 23.1877 162.803 23.1877C165.018 23.1877 166.568 21.9191 166.568 20.0061V19.6839H168.723V20.1471C168.723 23.1474 166.226 25.2014 162.722 25.2014Z" fill="#4339AC"/>
<defs>
<linearGradient id="paint0_linear_1_745" x1="7.73081" y1="32.5101" x2="18.9963" y2="2.97202" gradientUnits="userSpaceOnUse">
<stop stop-color="#46ADD8"/>
<stop offset="1" stop-color="#675AF1"/>
</linearGradient>
<linearGradient id="paint1_linear_1_745" x1="7.73081" y1="32.5101" x2="18.9963" y2="2.97202" gradientUnits="userSpaceOnUse">
<stop stop-color="#46ADD8"/>
<stop offset="1" stop-color="#675AF1"/>
</linearGradient>
</defs>
</svg>
