<svg width="74" height="36" viewBox="0 0 74 36" fill="none" xmlns="http://www.w3.org/2000/svg">
<g clip-path="url(#clip0_1_749)">
<path fill-rule="evenodd" clip-rule="evenodd" d="M0.694824 0.473633H69.3877L73.9324 4.96832V35.111H5.23945L0.694824 30.6163V0.473633ZM1.7139 2.19419V30.1988L4.94097 33.3904V5.38579L1.7139 2.19419ZM2.43449 1.48151L5.66157 4.67312H72.1927L68.9656 1.48151H2.43449ZM72.9133 34.1031H5.96005V5.68099H72.9133V34.1031Z" fill="#001A72"/>
<path d="M17.985 16.9019C17.985 17.9098 17.3056 18.7833 15.6751 18.7833C14.9618 18.7833 14.3843 18.6153 13.8748 18.4137V17.0027C14.4183 17.2714 15.0637 17.4394 15.6412 17.4394C16.1847 17.4394 16.4564 17.2714 16.4564 16.9691C16.4564 16.0284 13.8748 16.3308 13.8748 14.4158C13.8748 13.2399 14.8259 12.5344 16.1507 12.5344C16.6942 12.5344 17.2037 12.6688 17.7472 12.9712V14.4158C17.0339 13.979 16.5244 13.8447 16.1167 13.8447C15.6412 13.8447 15.3694 14.0126 15.3694 14.315C15.3354 15.2221 17.985 14.8861 17.985 16.9019Z" fill="#001A72"/>
<path d="M19.2756 15.6588C19.2756 13.9455 20.7023 12.5344 22.4348 12.5344C24.1672 12.5344 25.5939 13.9455 25.5939 15.6588C25.5939 17.3722 24.1672 18.7833 22.4348 18.7833C20.7023 18.7833 19.2756 17.3722 19.2756 15.6588ZM24.0313 15.6588C24.0313 14.7182 23.318 14.0126 22.4348 14.0126C21.5516 14.0126 20.8382 14.7182 20.8382 15.6588C20.8382 16.5995 21.5516 17.305 22.4348 17.305C23.318 17.305 24.0313 16.5995 24.0313 15.6588Z" fill="#001A72"/>
<path d="M29.1269 12.1985V12.7025H31.1311L30.4517 14.1135H29.1609V18.6825H27.7002V14.0799H26.6812V12.6689H27.7002V12.0977C27.7002 10.2836 28.6514 9.37646 30.146 9.37646C30.5197 9.37646 30.8594 9.44366 31.1651 9.51085V10.9219C30.8933 10.8211 30.5876 10.7875 30.2819 10.7875C29.4666 10.7875 29.1269 11.2914 29.1269 12.1985Z" fill="#001A72"/>
<path d="M34.1542 14.0799V16.4652C34.1542 17.1035 34.5278 17.3723 35.1053 17.3723C35.479 17.3723 35.8526 17.2715 36.1584 17.0699V18.5145C35.7507 18.6825 35.3771 18.7833 34.8336 18.7833C33.5088 18.7833 32.6935 18.0778 32.6935 16.6332V14.0799H31.8103V12.6688H32.6935V11.157L34.1542 10.7875V12.7024H36.1584V14.1135L34.1542 14.0799Z" fill="#001A72"/>
<path d="M46.7567 12.6689L44.7865 18.649H43.3258L42.001 14.5503L40.6423 18.649H39.1816L37.2454 12.6689H38.9098L39.9969 16.6669L41.2877 12.6689H42.7484L44.0392 16.6669L45.1262 12.6689H46.7567Z" fill="#001A72"/>
<path d="M47.5042 15.6588C47.5042 13.9455 48.761 12.5344 50.4934 12.5344C51.1728 12.5344 51.7163 12.736 52.124 13.072V12.6688H53.5846V18.6489H52.1579V18.1785C51.7503 18.5481 51.1728 18.7833 50.4595 18.7833C48.795 18.7833 47.5042 17.3722 47.5042 15.6588ZM52.2598 15.6588C52.2598 14.7182 51.5465 14.0126 50.6633 14.0126C49.7801 14.0126 49.0667 14.7182 49.0667 15.6588C49.0667 16.5995 49.7801 17.305 50.6633 17.305C51.5465 17.3386 52.2598 16.5995 52.2598 15.6588Z" fill="#001A72"/>
<path d="M55.6567 12.6688H57.0834V13.5087C57.525 12.7024 58.3403 12.568 59.0537 12.568V14.2814C58.0346 14.0126 57.1174 14.5837 57.1174 15.8604V18.6488H55.6567V12.6688Z" fill="#001A72"/>
<path d="M63.6397 17.3722C64.2171 17.3722 64.8965 17.2714 65.5759 17.0027L64.8286 18.5145C64.4889 18.6489 63.9793 18.7833 63.3679 18.7833C61.2278 18.7833 59.937 17.473 59.937 15.6588C59.937 13.9455 61.2278 12.5344 63.0961 12.5344C64.353 12.5344 65.3721 13.1727 65.7797 13.979V16.1292H61.4996C61.7374 16.9019 62.4507 17.3722 63.6397 17.3722ZM61.4996 15.0205H64.6587C64.4549 14.315 63.8435 13.8783 63.0622 13.8783C62.3149 13.8783 61.7374 14.3486 61.4996 15.0205Z" fill="#001A72"/>
<path d="M22.3331 23.7219V27.6527H20.8724V23.9571C20.8724 23.3188 20.3968 22.9492 19.9212 22.9492C19.4117 22.9492 18.9701 23.3188 18.9701 23.9571V27.6527H17.5094V23.9571C17.5094 23.3188 17.0339 22.9492 16.5583 22.9492C16.0488 22.9492 15.6072 23.3188 15.6072 23.9571V27.6527H14.1465V21.6726H15.5732V22.1093C16.0148 21.6726 16.4564 21.5382 17.0339 21.5382C17.6793 21.5382 18.2228 21.807 18.5964 22.3109C19.106 21.7734 19.7174 21.5382 20.4308 21.5382C21.4499 21.5382 22.3331 22.4453 22.3331 23.7219Z" fill="#001A72"/>
<path d="M23.8616 24.6626C23.8616 22.9492 25.1184 21.5382 26.8509 21.5382C27.5302 21.5382 28.0737 21.7398 28.4814 22.0757V21.6726H29.9421V27.6527H28.5153V27.1823C28.1077 27.5519 27.5302 27.787 26.8169 27.787C25.1524 27.787 23.8616 26.376 23.8616 24.6626ZM28.6173 24.6626C28.6173 23.7219 27.9039 23.0164 27.0207 23.0164C26.1375 23.0164 25.4242 23.7219 25.4242 24.6626C25.4242 25.6033 26.1375 26.3088 27.0207 26.3088C27.9039 26.3088 28.6173 25.6033 28.6173 24.6626Z" fill="#001A72"/>
<path d="M31.9463 21.6726H33.373V22.1093C33.8146 21.6726 34.3921 21.5382 34.9695 21.5382C36.2264 21.5382 37.2455 22.4789 37.2455 23.7555V27.6191H35.7848V24.0915C35.7848 23.4532 35.2753 22.9492 34.6299 22.9492C33.9844 22.9492 33.4749 23.4532 33.4749 24.0915V27.6527H32.0142V21.6726H31.9463Z" fill="#001A72"/>
<path d="M43.0881 25.9057C43.0881 26.9135 42.4087 27.787 40.7781 27.787C40.0648 27.787 39.4873 27.6191 38.9778 27.4175V26.0065C39.5213 26.2752 40.1667 26.4432 40.7442 26.4432C41.2877 26.4432 41.5594 26.2752 41.5594 25.9729C41.5594 25.0322 38.9778 25.3345 38.9778 23.4196C38.9778 22.2437 39.9289 21.5382 41.2537 21.5382C41.7972 21.5382 42.3068 21.6726 42.8503 21.975V23.4196C42.1369 22.9828 41.6274 22.8484 41.2197 22.8484C40.7442 22.8484 40.4724 23.0164 40.4724 23.3188C40.4724 24.2259 43.0881 23.8899 43.0881 25.9057Z" fill="#001A72"/>
<path d="M46.2813 21.6725V27.6526H44.7866V21.6725H46.2813Z" fill="#001A72"/>
<path d="M47.8098 24.6626C47.8098 22.9492 49.2365 21.5382 50.9689 21.5382C52.7014 21.5382 54.1281 22.9492 54.1281 24.6626C54.1281 26.376 52.7014 27.787 50.9689 27.787C49.2365 27.787 47.8098 26.376 47.8098 24.6626ZM52.5655 24.6626C52.5655 23.7219 51.8521 23.0164 50.9689 23.0164C50.0858 23.0164 49.3724 23.7219 49.3724 24.6626C49.3724 25.6033 50.0858 26.3088 50.9689 26.3088C51.8521 26.3088 52.5655 25.6033 52.5655 24.6626Z" fill="#001A72"/>
<path d="M55.6228 21.6726H57.0495V22.1093C57.4911 21.6726 58.0686 21.5382 58.6461 21.5382C59.9029 21.5382 60.922 22.4789 60.922 23.7555V27.6191H59.4613V24.0915C59.4613 23.4532 58.9518 22.9492 58.3064 22.9492C57.661 22.9492 57.1514 23.4532 57.1514 24.0915V27.6527H55.6907V21.6726H55.6228Z" fill="#001A72"/>
<path d="M63.198 27.6527H62.9602V26.208H62.4507V26.0065H63.7415V26.208H63.232V27.6527H63.198Z" fill="#001A72"/>
<path d="M64.7605 27.6526L64.3868 26.6784C64.3528 26.544 64.3189 26.4432 64.2849 26.3424C64.2849 26.4768 64.2849 26.6112 64.2849 26.712V27.6862H64.0471V26.04H64.3528L64.7605 27.0815C64.8284 27.2159 64.8284 27.2495 64.8624 27.3839C64.8964 27.2495 64.9303 27.1823 64.9643 27.0815L65.3719 26.04H65.6776V27.6862H65.4399V26.712C65.4399 26.6112 65.4399 26.4768 65.4399 26.3424C65.4059 26.4768 65.3719 26.5776 65.304 26.712L64.9303 27.6862L64.7605 27.6526Z" fill="#001A72"/>
</g>
<defs>
<clipPath id="clip0_1_749">
<rect width="73.3734" height="34.9397" fill="white" transform="translate(0.626709 0.406494)"/>
</clipPath>
</defs>
</svg>
