<svg width="74" height="36" viewBox="0 0 74 36" fill="none" xmlns="http://www.w3.org/2000/svg">
<g clip-path="url(#clip0_135_843)">
<path fill-rule="evenodd" clip-rule="evenodd" d="M0.694336 0.473663H69.3872L73.9319 4.96835V35.111H5.23896L0.694336 30.6163V0.473663ZM1.71341 2.19422V30.1989L4.94048 33.3905V5.38583L1.71341 2.19422ZM2.43401 1.48154L5.66108 4.67315H72.1922L68.9651 1.48154H2.43401ZM72.9128 34.1031H5.95956V5.68103H72.9128V34.1031Z" fill="#E1E1E1"/>
<path d="M17.9843 16.9021C17.9843 17.9099 17.3049 18.7834 15.6744 18.7834C14.961 18.7834 14.3836 18.6154 13.874 18.4139V17.0028C14.4175 17.2716 15.0629 17.4396 15.6404 17.4396C16.1839 17.4396 16.4557 17.2716 16.4557 16.9692C16.4557 16.0286 13.874 16.3309 13.874 14.416C13.874 13.2401 14.8252 12.5346 16.15 12.5346C16.6935 12.5346 17.203 12.669 17.7465 12.9713V14.416C17.0332 13.9792 16.5236 13.8448 16.116 13.8448C15.6404 13.8448 15.3687 14.0128 15.3687 14.3152C15.3347 15.2223 17.9843 14.8863 17.9843 16.9021Z" fill="#E1E1E1"/>
<path d="M19.2754 15.659C19.2754 13.9456 20.7021 12.5346 22.4345 12.5346C24.1669 12.5346 25.5937 13.9456 25.5937 15.659C25.5937 17.3724 24.1669 18.7834 22.4345 18.7834C20.7021 18.7834 19.2754 17.3724 19.2754 15.659ZM24.0311 15.659C24.0311 14.7183 23.3177 14.0128 22.4345 14.0128C21.5513 14.0128 20.838 14.7183 20.838 15.659C20.838 16.5997 21.5513 17.3052 22.4345 17.3052C23.3177 17.3052 24.0311 16.5997 24.0311 15.659Z" fill="#E1E1E1"/>
<path d="M29.1264 12.1986V12.7026H31.1306L30.4512 14.1136H29.1604V18.6826H27.6997V14.08H26.6807V12.669H27.6997V12.0978C27.6997 10.2837 28.6509 9.37657 30.1455 9.37657C30.5192 9.37657 30.8589 9.44376 31.1646 9.51096V10.922C30.8928 10.8212 30.5871 10.7876 30.2814 10.7876C29.4661 10.7876 29.1264 11.2915 29.1264 12.1986Z" fill="#E1E1E1"/>
<path d="M34.1539 14.08V16.4653C34.1539 17.1036 34.5276 17.3724 35.1051 17.3724C35.4787 17.3724 35.8524 17.2716 36.1581 17.07V18.5147C35.7505 18.6826 35.3768 18.7834 34.8333 18.7834C33.5085 18.7834 32.6933 18.0779 32.6933 16.6333V14.08H31.8101V12.669H32.6933V11.1572L34.1539 10.7876V12.7026H36.1581V14.1136L34.1539 14.08Z" fill="#E1E1E1"/>
<path d="M46.7565 12.669L44.7863 18.649H43.3256L42.0008 14.5503L40.642 18.649H39.1814L37.2451 12.669H38.9096L39.9966 16.6669L41.2874 12.669H42.7481L44.039 16.6669L45.126 12.669H46.7565Z" fill="#E1E1E1"/>
<path d="M47.5034 15.659C47.5034 13.9456 48.7603 12.5346 50.4927 12.5346C51.1721 12.5346 51.7156 12.7362 52.1232 13.0721V12.669H53.5839V18.649H52.1572V18.1787C51.7496 18.5483 51.1721 18.7834 50.4587 18.7834C48.7942 18.7834 47.5034 17.3724 47.5034 15.659ZM52.2591 15.659C52.2591 14.7183 51.5458 14.0128 50.6626 14.0128C49.7794 14.0128 49.066 14.7183 49.066 15.659C49.066 16.5997 49.7794 17.3052 50.6626 17.3052C51.5458 17.3388 52.2591 16.5997 52.2591 15.659Z" fill="#E1E1E1"/>
<path d="M55.6562 12.669H57.083V13.5089C57.5246 12.7026 58.3398 12.5682 59.0532 12.5682V14.2816C58.0341 14.0128 57.1169 14.5839 57.1169 15.8606V18.649H55.6562V12.669Z" fill="#E1E1E1"/>
<path d="M63.6392 17.3724C64.2166 17.3724 64.896 17.2716 65.5754 17.0028L64.8281 18.5147C64.4884 18.649 63.9789 18.7834 63.3674 18.7834C61.2273 18.7834 59.9365 17.4732 59.9365 15.659C59.9365 13.9456 61.2273 12.5346 63.0957 12.5346C64.3525 12.5346 65.3716 13.1729 65.7792 13.9792V16.1294H61.4991C61.7369 16.9021 62.4502 17.3724 63.6392 17.3724ZM61.4991 15.0207H64.6582C64.4544 14.3152 63.843 13.8784 63.0617 13.8784C62.3144 13.8784 61.7369 14.3488 61.4991 15.0207Z" fill="#E1E1E1"/>
<path d="M22.3326 23.722V27.6527H20.8719V23.9572C20.8719 23.3189 20.3963 22.9493 19.9208 22.9493C19.4112 22.9493 18.9696 23.3189 18.9696 23.9572V27.6527H17.5089V23.9572C17.5089 23.3189 17.0334 22.9493 16.5578 22.9493C16.0483 22.9493 15.6067 23.3189 15.6067 23.9572V27.6527H14.146V21.6727H15.5727V22.1094C16.0143 21.6727 16.4559 21.5383 17.0334 21.5383C17.6788 21.5383 18.2223 21.807 18.596 22.311C19.1055 21.7735 19.7169 21.5383 20.4303 21.5383C21.4494 21.5383 22.3326 22.4454 22.3326 23.722Z" fill="#E1E1E1"/>
<path d="M23.8613 24.6627C23.8613 22.9493 25.1182 21.5383 26.8506 21.5383C27.53 21.5383 28.0735 21.7399 28.4811 22.0758V21.6727H29.9418V27.6527H28.5151V27.1824C28.1075 27.5519 27.53 27.7871 26.8166 27.7871C25.1522 27.7871 23.8613 26.3761 23.8613 24.6627ZM28.617 24.6627C28.617 23.722 27.9037 23.0165 27.0205 23.0165C26.1373 23.0165 25.4239 23.722 25.4239 24.6627C25.4239 25.6034 26.1373 26.3089 27.0205 26.3089C27.9037 26.3089 28.617 25.6034 28.617 24.6627Z" fill="#E1E1E1"/>
<path d="M31.9458 21.6727H33.3725V22.1094C33.8141 21.6727 34.3916 21.5383 34.9691 21.5383C36.2259 21.5383 37.245 22.479 37.245 23.7556V27.6191H35.7843V24.0916C35.7843 23.4532 35.2748 22.9493 34.6294 22.9493C33.984 22.9493 33.4744 23.4532 33.4744 24.0916V27.6527H32.0137V21.6727H31.9458Z" fill="#E1E1E1"/>
<path d="M43.0878 25.9057C43.0878 26.9136 42.4084 27.7871 40.7779 27.7871C40.0646 27.7871 39.4871 27.6191 38.9775 27.4176V26.0065C39.521 26.2753 40.1665 26.4433 40.7439 26.4433C41.2874 26.4433 41.5592 26.2753 41.5592 25.9729C41.5592 25.0323 38.9775 25.3346 38.9775 23.4197C38.9775 22.2438 39.9287 21.5383 41.2535 21.5383C41.797 21.5383 42.3065 21.6727 42.85 21.975V23.4197C42.1367 22.9829 41.6271 22.8485 41.2195 22.8485C40.7439 22.8485 40.4722 23.0165 40.4722 23.3189C40.4722 24.226 43.0878 23.89 43.0878 25.9057Z" fill="#E1E1E1"/>
<path d="M46.2808 21.6727V27.6527H44.7861V21.6727H46.2808Z" fill="#E1E1E1"/>
<path d="M47.8091 24.6627C47.8091 22.9493 49.2358 21.5383 50.9682 21.5383C52.7006 21.5383 54.1274 22.9493 54.1274 24.6627C54.1274 26.3761 52.7006 27.7871 50.9682 27.7871C49.2358 27.7871 47.8091 26.3761 47.8091 24.6627ZM52.5648 24.6627C52.5648 23.722 51.8514 23.0165 50.9682 23.0165C50.085 23.0165 49.3717 23.722 49.3717 24.6627C49.3717 25.6034 50.085 26.3089 50.9682 26.3089C51.8514 26.3089 52.5648 25.6034 52.5648 24.6627Z" fill="#E1E1E1"/>
<path d="M55.6221 21.6727H57.0488V22.1094C57.4904 21.6727 58.0679 21.5383 58.6453 21.5383C59.9022 21.5383 60.9213 22.479 60.9213 23.7556V27.6191H59.4606V24.0916C59.4606 23.4532 58.9511 22.9493 58.3056 22.9493C57.6602 22.9493 57.1507 23.4532 57.1507 24.0916V27.6527H55.69V21.6727H55.6221Z" fill="#E1E1E1"/>
<path d="M63.1975 27.6527H62.9597V26.2081H62.4502V26.0065H63.741V26.2081H63.2315V27.6527H63.1975Z" fill="#E1E1E1"/>
<path d="M64.7597 27.6527L64.3861 26.6785C64.3521 26.5441 64.3181 26.4433 64.2842 26.3425C64.2842 26.4769 64.2842 26.6113 64.2842 26.712V27.6863H64.0464V26.0401H64.3521L64.7597 27.0816C64.8277 27.216 64.8277 27.2496 64.8617 27.384C64.8956 27.2496 64.9296 27.1824 64.9636 27.0816L65.3712 26.0401H65.6769V27.6863H65.4391V26.712C65.4391 26.6113 65.4391 26.4769 65.4391 26.3425C65.4052 26.4769 65.3712 26.5777 65.3032 26.712L64.9296 27.6863L64.7597 27.6527Z" fill="#E1E1E1"/>
</g>
<defs>
<clipPath id="clip0_135_843">
<rect width="73.3734" height="34.9397" fill="white" transform="translate(0.626465 0.406479)"/>
</clipPath>
</defs>
</svg>
