<svg width="61" height="33" viewBox="0 0 61 33" fill="none" xmlns="http://www.w3.org/2000/svg">
<g clip-path="url(#clip0_0_597)">
<path fill-rule="evenodd" clip-rule="evenodd" d="M9.88729 0.0952148H10.1999H60.0499H60.8063L60.8046 0.851621L60.7546 22.6516L60.7539 22.962L60.535 23.1821L51.235 32.5321L51.0137 32.7546H50.6999H0.84989H0.0952148V31.9999V10.1999V9.88729L0.316254 9.66625L9.66625 0.316254L9.88729 0.0952148ZM10.5125 1.60456L2.67183 9.44522H50.3873L58.2279 1.60456H10.5125ZM59.291 2.676L51.4546 10.5125V30.171L59.2459 22.3378L59.291 2.676ZM1.60456 31.2452V10.9546H49.9452V31.2452H1.60456Z" fill="white"/>
<path d="M13.7499 23.2499C13.7499 24.8999 12.6999 26.2999 10.0499 26.2999C8.8999 26.2999 7.9999 26.0499 7.1499 25.6999V23.4499C7.9999 23.8999 9.0499 24.1499 9.9999 24.1499C10.8499 24.1499 11.2999 23.8999 11.2999 23.3999C11.2999 21.8999 7.1499 22.3499 7.1499 19.2499C7.1499 17.3499 8.6999 16.1499 10.7999 16.1499C11.6999 16.1499 12.4999 16.3499 13.3499 16.8499V19.2499C12.1999 18.5499 11.3999 18.2999 10.7499 18.2999C9.9499 18.2999 9.5499 18.5999 9.5499 19.0499C9.5499 20.4999 13.7499 19.9499 13.7499 23.2499Z" fill="white"/>
<path d="M30.3 16.3999L27.15 26.0999H24.75L22.6 19.4499L20.5 26.0999H18.1L14.95 16.3999H17.65L19.4 22.8999L21.45 16.3999H23.85L25.9 22.8999L27.65 16.3999C27.65 16.3999 30.3 16.3999 30.3 16.3999Z" fill="white"/>
<path d="M45.35 19.6999V26.0999H43V20.0999C43 19.0499 42.25 18.4499 41.45 18.4499C40.6 18.4499 39.9 19.0499 39.9 20.0999V26.0999H37.5V20.0999C37.5 19.0499 36.75 18.4499 35.95 18.4499C35.1 18.4499 34.4 19.0499 34.4 20.0999V26.0999H32V16.3999H34.25V17.0999C34.95 16.3999 35.7 16.1499 36.6 16.1499C37.6 16.1499 38.5 16.5999 39.1 17.3999C39.9 16.5499 40.9 16.1499 42.05 16.1499C43.95 16.1999 45.35 17.6499 45.35 19.6999Z" fill="white"/>
</g>
<defs>
<clipPath id="clip0_0_597">
<rect width="61" height="33" fill="white"/>
</clipPath>
</defs>
</svg>
